<?xml version="1.0" encoding="utf-8"?>
<!-- Generator: Adobe Illustrator 26.2.0, SVG Export Plug-In . SVG Version: 6.00 Build 0)  -->
<svg version="1.1" xmlns="http://www.w3.org/2000/svg" xmlns:xlink="http://www.w3.org/1999/xlink" x="0px" y="0px"
	 viewBox="0 0 2000 2000" style="enable-background:new 0 0 2000 2000;" xml:space="preserve">
<style type="text/css">
	.st0{fill:#141414;}
	.st1{fill:#FF3D8B;}
	.st2{fill:#FFE922;}
	.st3{fill:url(#SVGID_1_);}
	.st4{fill:url(#SVGID_00000145774798909888704900000016721822048648817045_);}
	.st5{fill:#4DACE7;}
	.st6{fill:url(#SVGID_00000138559905499170369010000002726991352013438900_);}
</style>
<g id="Layer_1">
</g>
<g id="Layer_2">
	<g id="Layer_5">
	</g>
	<g id="Layer_4">
	</g>
	<g id="Layer_3">
	</g>
	<path class="st0" d="M1654.08,590.09c20.62-20.62,116.62,0,116.62,0c10.7-6.23,46.15,106.92,0,144.45
		c-22.62,18.4-116.62,0-116.62,0S1628.54,615.63,1654.08,590.09z"/>
	<path class="st0" d="M1661.31,794.27c20.62-20.62,141.97,21.72,141.97,21.72s53.27,248.07,0,301.34c-20.62,20.62-116.62,0-116.62,0
		S1608.04,847.54,1661.31,794.27z"/>
	<ellipse class="st1" cx="1563.58" cy="1202.83" rx="95.02" ry="88.23"/>
	
		<ellipse transform="matrix(0.9689 -0.2475 0.2475 0.9689 -136.8238 405.2469)" class="st2" cx="1543.22" cy="746.76" rx="52.94" ry="69.23"/>
	
		<ellipse transform="matrix(0.1084 -0.9941 0.9941 0.1084 732.4554 2103.8865)" class="st1" cx="1539.14" cy="643.6" rx="80.08" ry="124.88"/>
	<linearGradient id="SVGID_1_" gradientUnits="userSpaceOnUse" x1="1531.7479" y1="1130.5485" x2="1531.7479" y2="1530.0049">
		<stop  offset="0.0804" style="stop-color:#4DACE7"/>
		<stop  offset="0.3979" style="stop-color:#FF3D8B"/>
		<stop  offset="0.6339" style="stop-color:#FFE922"/>
	</linearGradient>
	<polygon class="st3" points="1536.64,1231.86 1311.33,1215.87 1420.08,1489.42 1458.95,1477.46 1373.44,1264.33 1595.2,1277.73 
		1504.81,1051.06 1752.16,1082.9 1746.47,1035.31 1444.9,1004.2 	"/>
	<path class="st0" d="M1035.45,1138.25c0,0-25.26-456.97,68.85-549.46c22.3-21.92,125.1,0,125.1,0l57.99,306.87
		c0,0,1.91-257.35,62.55-306.87c23.34-19.06,120.53,0,120.53,0c0.14,13,145.16,552.52,52.4,620.84c-16.98,12.51-114.02,0-114.02,0
		l-21.77-444.27c0,0,1.05,287.44-61.24,351.18c-12.87,13.16-61.45,13.81-73.62,0c-68.68-77.94-65.15-353.79-65.15-353.79
		s-4.3,313.64-67.54,375.5C1104.48,1152.94,1035.45,1138.25,1035.45,1138.25z"/>
	
		<linearGradient id="SVGID_00000098930418273752375110000008437677167760910496_" gradientUnits="userSpaceOnUse" x1="-191.3573" y1="321.429" x2="-345.5608" y2="636.5044" gradientTransform="matrix(-0.9977 -0.0684 0.0684 -0.9977 709.9263 1462.4117)">
		<stop  offset="0" style="stop-color:#4DACE7"/>
		<stop  offset="0.3433" style="stop-color:#FF3D8B"/>
		<stop  offset="0.6403" style="stop-color:#FFE922"/>
	</linearGradient>
	<polygon style="fill:url(#SVGID_00000098930418273752375110000008437677167760910496_);" points="996.82,1012.58 1137.08,1095.8 
		1155.4,884.05 1126.44,879.19 1112.67,1044.43 973.87,964.03 958.87,1139.58 809.51,1038.99 797.79,1071.56 982.38,1189.21 	"/>
	
		<ellipse transform="matrix(0.7071 -0.7071 0.7071 0.7071 58.8377 1313.3795)" class="st5" cx="1614.81" cy="585.67" rx="44.7" ry="59.57"/>
	<ellipse class="st5" cx="567.27" cy="1235.41" rx="177.82" ry="152.03"/>
	<ellipse class="st2" cx="914.76" cy="908.29" rx="154.74" ry="127.59"/>
	<path class="st0" d="M443.64,1277.49c0,0-52.92-573.04,71.56-688.7c22.91-21.29,125.1,0,125.1,0l57.99,306.87
		c0,0,1.91-257.35,62.55-306.87c23.34-19.06,120.53,0,120.53,0s101.62,433.64,9.12,527.75c-14.78,15.04-84.35,0-84.35,0
		l-8.17-351.18c0,0,6.97,293.83-61.24,351.18c-14.09,11.84-62.84,14.92-73.62,0c-52.39-72.51-65.15-353.79-65.15-353.79
		s23.42,429.66-70.26,514.74C512.13,1291.62,443.64,1277.49,443.64,1277.49z"/>
	<polygon class="st2" points="378.22,780.93 478.06,603.95 213.8,586.89 208.53,623.1 414.74,635.75 318.36,810.84 537.44,824.74 
		416.21,1013.53 457.1,1027.24 598.63,794.11 	"/>
	
		<linearGradient id="SVGID_00000182511330636923578010000001514539650698625982_" gradientUnits="userSpaceOnUse" x1="422.67" y1="570.8976" x2="422.67" y2="1011.2512">
		<stop  offset="0.0804" style="stop-color:#4DACE7"/>
		<stop  offset="0.4484" style="stop-color:#FF3D8B"/>
		<stop  offset="0.8768" style="stop-color:#FFE922"/>
	</linearGradient>
	<polygon style="fill:url(#SVGID_00000182511330636923578010000001514539650698625982_);" points="397.31,764.93 497.16,587.95 
		232.89,570.9 227.62,607.11 433.83,619.76 337.45,794.84 556.53,808.75 435.31,997.53 476.19,1011.25 617.72,778.11 	"/>
	<g>
		<g>
			<path class="st0" d="M578.62,1252.75v-22.39h39v22.39H578.62z M578.85,1386.71v-114.55h38.76v114.55H578.85z"/>
			<path class="st0" d="M658.28,1386.71v-114.55h38.76v11.49c5.07-4.23,10.34-7.53,15.81-9.91s11.21-3.57,17.24-3.57
				c5.71,0,10.42,1.16,14.15,3.47c3.72,2.31,6.54,5.48,8.44,9.51c1.9,4.03,2.85,8.62,2.85,13.77v89.77h-38.53v-85.22
				c0-2.77-0.56-4.89-1.66-6.34c-1.11-1.45-3.17-2.18-6.18-2.18c-1.59,0-3.45,0.37-5.59,1.09c-2.14,0.73-4.32,1.75-6.54,3.07v89.58
				H658.28z"/>
			<path class="st0" d="M838.06,1387.9c-10.31,0-18.27-1.25-23.9-3.77c-5.63-2.51-9.48-6.17-11.53-11
				c-2.06-4.82-3.09-10.67-3.09-17.54v-62.23h-13.32v-21.21h13.32v-34.88h39.24v34.88h19.5v21.21h-19.5v59.06
				c0,3.3,1.15,5.68,3.45,7.13c2.3,1.46,5.19,2.18,8.68,2.18c2.06,0,3.96-0.1,5.71-0.3c1.74-0.2,3.33-0.36,4.76-0.5v25.37
				c-2.06,0.27-5.31,0.59-9.75,0.99C847.18,1387.71,842.66,1387.9,838.06,1387.9z"/>
			<path class="st0" d="M941.27,1388.7c-9.99,0-18.55-1.49-25.68-4.46s-12.6-7.33-16.41-13.08c-3.8-5.75-5.71-12.65-5.71-20.71
				v-42.01c0-8.19,1.9-15.13,5.71-20.81c3.81-5.68,9.31-10.01,16.53-12.98c7.21-2.97,15.73-4.46,25.56-4.46
				c10.14,0,18.59,1.46,25.33,4.36c6.74,2.91,11.81,7.2,15.22,12.88c3.41,5.68,5.11,12.68,5.11,21.01v22.99h-55.17v22
				c0,2.91,0.39,5.29,1.19,7.13c0.79,1.85,1.9,3.17,3.33,3.96c1.43,0.79,3.09,1.19,4.99,1.19c1.9,0,3.6-0.36,5.11-1.09
				c1.5-0.72,2.69-1.88,3.57-3.47c0.87-1.59,1.31-3.77,1.31-6.54v-12.09h35.67v11.1c0,11.63-4.04,20.38-12.13,26.26
				C966.72,1385.76,955.54,1388.7,941.27,1388.7z M927.95,1259.49l14.98-39.83h39.48l-29.96,39.83H927.95z M931.76,1316.36h19.5
				v-11.49c0-3.04-0.44-5.42-1.31-7.13c-0.87-1.72-2.06-2.91-3.57-3.57c-1.51-0.66-3.29-0.99-5.35-0.99c-1.9,0-3.53,0.4-4.88,1.19
				c-1.35,0.79-2.42,2.15-3.21,4.06c-0.79,1.92-1.19,4.66-1.19,8.22V1316.36z"/>
			<path class="st0" d="M1069.45,1426.35c-10.31,0-19.26-0.86-26.87-2.58c-7.61-1.72-13.52-4.29-17.72-7.73
				c-4.2-3.44-6.3-7.8-6.3-13.08c0-3.57,0.91-6.77,2.73-9.61c1.82-2.84,4.36-5.35,7.61-7.53c3.25-2.18,6.93-4.06,11.06-5.65
				c-6.03-1.45-10.7-3.63-14.03-6.54c-3.33-2.9-4.99-6.8-4.99-11.69c0-4.62,1.35-8.62,4.04-11.99c2.69-3.37,6.42-6.77,11.18-10.21
				c-4.44-3.3-7.81-7.36-10.11-12.19c-2.3-4.82-3.45-10.67-3.45-17.54c0-8.59,1.9-15.85,5.71-21.8s9.39-10.44,16.77-13.48
				c7.37-3.04,16.29-4.56,26.75-4.56c7.13,0,13.4,0.73,18.79,2.18c5.39,1.46,9.99,3.7,13.79,6.74c1.74-2.25,4.04-4.42,6.9-6.54
				c2.85-2.11,6.1-3.9,9.75-5.35l4.99-1.98l9.04,15.46c-1.43,0.4-3.41,1.06-5.95,1.98c-2.54,0.93-5.19,1.92-7.97,2.97
				c-2.78,1.06-5.27,2.11-7.49,3.17c1.74,2.91,3.09,6.21,4.04,9.91c0.95,3.7,1.43,7.53,1.43,11.49c0,8.19-1.78,15.26-5.35,21.21
				s-8.84,10.47-15.81,13.58c-6.98,3.11-15.7,4.66-26.16,4.66c-4.44,0-8.64-0.3-12.6-0.89c-3.96-0.59-7.61-1.35-10.94-2.28
				c-0.95,1.06-1.78,2.15-2.5,3.27c-0.71,1.12-1.07,2.35-1.07,3.67c0,1.59,0.95,2.84,2.85,3.77c1.9,0.93,5.31,1.65,10.23,2.18
				l36.15,3.37c11.73,1.06,20.37,4.2,25.92,9.41c5.55,5.22,8.32,12.06,8.32,20.51c0,7.26-1.94,13.41-5.83,18.43
				c-3.89,5.02-10.15,8.82-18.79,11.39C1094.93,1425.06,1083.56,1426.35,1069.45,1426.35z M1074.44,1402.96
				c8.72,0,15.42-0.59,20.09-1.78c4.67-1.19,7.02-3.64,7.02-7.33c0-1.85-0.64-3.34-1.9-4.46c-1.27-1.12-3.37-2.05-6.3-2.77
				c-2.93-0.72-7.1-1.29-12.48-1.68l-25.45-2.18c-1.59,0.93-2.97,1.95-4.16,3.07c-1.19,1.12-2.14,2.31-2.85,3.57
				c-0.71,1.25-1.07,2.61-1.07,4.06c0,3.17,2.06,5.55,6.18,7.13C1057.64,1402.17,1064.61,1402.96,1074.44,1402.96z M1071.83,1330.43
				c2.22,0,4.04-0.36,5.47-1.09c1.43-0.72,2.5-1.88,3.21-3.47c0.71-1.59,1.23-3.7,1.55-6.34c0.32-2.64,0.48-5.81,0.48-9.51
				c0-3.83-0.16-7.04-0.48-9.61c-0.32-2.58-0.83-4.69-1.55-6.34c-0.71-1.65-1.78-2.84-3.21-3.57c-1.43-0.72-3.25-1.09-5.47-1.09
				c-2.22,0-4.04,0.37-5.47,1.09c-1.43,0.73-2.5,1.88-3.21,3.47c-0.71,1.58-1.23,3.7-1.55,6.34c-0.32,2.64-0.48,5.88-0.48,9.71
				c0,3.7,0.16,6.84,0.48,9.41c0.32,2.58,0.83,4.69,1.55,6.34c0.71,1.65,1.78,2.84,3.21,3.57
				C1067.78,1330.07,1069.6,1330.43,1071.83,1330.43z"/>
			<path class="st0" d="M1161,1386.71v-114.55h38.76v19.03c4.44-6.6,8.88-11.66,13.32-15.16c4.44-3.5,9.83-5.25,16.17-5.25
				c1.27,0,2.38,0.03,3.33,0.1c0.95,0.07,1.82,0.23,2.62,0.5v32.1c-1.75-0.66-3.69-1.22-5.83-1.68c-2.14-0.46-4.4-0.69-6.78-0.69
				c-4.44,0-8.56,0.99-12.37,2.97c-3.81,1.98-7.29,4.69-10.46,8.13v74.51H1161z"/>
			<path class="st0" d="M1296.55,1388.7c-6.98,0-12.84-1.39-17.6-4.16c-4.76-2.77-8.32-6.31-10.7-10.6
				c-2.38-4.29-3.57-8.69-3.57-13.18c0-7.13,1.7-13.14,5.11-18.03c3.41-4.89,7.88-8.98,13.44-12.29c5.55-3.3,11.65-6.11,18.31-8.42
				c6.66-2.31,13.24-4.39,19.74-6.24v-11.49c0-1.98-0.24-3.73-0.71-5.25c-0.48-1.52-1.27-2.71-2.38-3.57
				c-1.11-0.86-2.78-1.29-4.99-1.29c-2.22,0-3.92,0.4-5.11,1.19c-1.19,0.79-2.02,1.88-2.5,3.27c-0.48,1.39-0.79,2.94-0.95,4.66
				l-0.95,8.32l-36.15-1.19c0.79-13.74,5.19-23.88,13.2-30.42c8-6.54,20.01-9.81,36.03-9.81c13.95,0,24.38,3.21,31.27,9.61
				c6.9,6.41,10.34,14.7,10.34,24.87v53.51c0,4.76,0.12,8.92,0.36,12.49c0.24,3.57,0.55,6.67,0.95,9.31
				c0.39,2.64,0.75,4.89,1.07,6.74h-34.72c-0.48-3.04-1.03-6.34-1.66-9.91c-0.64-3.57-1.11-5.68-1.43-6.34
				c-1.59,4.76-4.56,8.99-8.92,12.68C1309.67,1386.84,1303.84,1388.7,1296.55,1388.7z M1310.35,1366.9c1.58,0,3.05-0.26,4.4-0.79
				c1.35-0.53,2.58-1.25,3.69-2.18c1.11-0.92,2.06-1.85,2.85-2.77v-31.31c-3.17,1.58-6.11,3.2-8.8,4.85
				c-2.7,1.65-4.99,3.47-6.9,5.45s-3.37,4.13-4.4,6.44c-1.03,2.31-1.55,4.92-1.55,7.83c0,3.83,0.95,6.87,2.85,9.12
				C1304.4,1365.78,1307.02,1366.9,1310.35,1366.9z"/>
			<path class="st0" d="M1440.67,1387.9c-10.31,0-18.27-1.25-23.9-3.77c-5.63-2.51-9.48-6.17-11.53-11
				c-2.06-4.82-3.09-10.67-3.09-17.54v-62.23h-13.32v-21.21h13.32v-34.88h39.24v34.88h19.5v21.21h-19.5v59.06
				c0,3.3,1.15,5.68,3.45,7.13c2.3,1.46,5.19,2.18,8.68,2.18c2.06,0,3.96-0.1,5.71-0.3c1.74-0.2,3.33-0.36,4.76-0.5v25.37
				c-2.06,0.27-5.31,0.59-9.75,0.99C1449.78,1387.71,1445.26,1387.9,1440.67,1387.9z"/>
			<path class="st0" d="M1498.93,1252.75v-22.39h39v22.39H1498.93z M1499.17,1386.71v-114.55h38.76v114.55H1499.17z"/>
			<path class="st0" d="M1623.78,1388.7c-9.83,0-18.35-1.39-25.56-4.16c-7.22-2.77-12.76-6.94-16.65-12.49
				c-3.89-5.55-5.83-12.49-5.83-20.81v-43.6c0-8.32,1.94-15.26,5.83-20.81c3.88-5.55,9.43-9.71,16.65-12.48
				c7.21-2.77,15.73-4.16,25.56-4.16c9.83,0,18.35,1.39,25.56,4.16c7.21,2.77,12.8,6.94,16.77,12.48
				c3.96,5.55,5.95,12.49,5.95,20.81v43.6c0,8.32-1.98,15.26-5.95,20.81c-3.96,5.55-9.55,9.71-16.77,12.49
				C1642.13,1387.31,1633.61,1388.7,1623.78,1388.7z M1624.02,1367.29c2.53,0,4.52-0.56,5.95-1.68c1.43-1.12,2.42-2.71,2.97-4.76
				c0.55-2.05,0.83-4.52,0.83-7.43v-47.96c0-2.9-0.28-5.38-0.83-7.43c-0.56-2.05-1.55-3.63-2.97-4.76
				c-1.43-1.12-3.41-1.68-5.95-1.68c-2.54,0-4.52,0.56-5.95,1.68c-1.43,1.12-2.46,2.71-3.09,4.76c-0.64,2.05-0.95,4.53-0.95,7.43
				v47.96c0,2.91,0.32,5.38,0.95,7.43c0.63,2.05,1.66,3.64,3.09,4.76C1619.5,1366.73,1621.48,1367.29,1624.02,1367.29z"/>
			<path class="st0" d="M1710.1,1386.71v-114.55h38.76v11.49c5.07-4.23,10.34-7.53,15.81-9.91s11.21-3.57,17.24-3.57
				c5.71,0,10.42,1.16,14.15,3.47c3.72,2.31,6.54,5.48,8.44,9.51c1.9,4.03,2.85,8.62,2.85,13.77v89.77h-38.53v-85.22
				c0-2.77-0.56-4.89-1.66-6.34c-1.11-1.45-3.17-2.18-6.18-2.18c-1.59,0-3.45,0.37-5.59,1.09c-2.14,0.73-4.32,1.75-6.54,3.07v89.58
				H1710.1z"/>
		</g>
	</g>
</g>
</svg>
