<?xml version="1.0" encoding="utf-8"?>
<!-- Generator: Adobe Illustrator 26.2.0, SVG Export Plug-In . SVG Version: 6.00 Build 0)  -->
<svg version="1.1" id="Layer_1" xmlns="http://www.w3.org/2000/svg" xmlns:xlink="http://www.w3.org/1999/xlink" x="0px" y="0px"
	 viewBox="0 0 2000 2000" style="enable-background:new 0 0 2000 2000;" xml:space="preserve">
<style type="text/css">
	.st0{fill:#F5F5F5;}
	.st1{fill:#FF3D8B;}
	.st2{fill:#FFE922;}
	.st3{fill:url(#SVGID_1_);}
	.st4{fill:url(#SVGID_00000183934788962827116910000014988958788737906831_);}
	.st5{fill:#4DACE7;}
	.st6{fill:url(#SVGID_00000164487533112474311660000008716709078907796618_);}
</style>
<g id="Layer_1_00000126281056371254870220000017331313029102717594_">
</g>
<g id="Layer_2_00000163753416404062233280000017676034464743937937_">
	<g id="Layer_5">
	</g>
	<g id="Layer_4">
	</g>
	<g id="Layer_3">
	</g>
	<path class="st0" d="M1636.08,579.09c20.62-20.62,116.62,0,116.62,0c10.7-6.23,46.15,106.92,0,144.45
		c-22.62,18.4-116.62,0-116.62,0S1610.54,604.63,1636.08,579.09z"/>
	<path class="st0" d="M1643.31,783.27c20.62-20.62,141.97,21.72,141.97,21.72s53.27,248.07,0,301.34c-20.62,20.62-116.62,0-116.62,0
		S1590.04,836.54,1643.31,783.27z"/>
	<ellipse class="st1" cx="1545.58" cy="1191.83" rx="95.02" ry="88.23"/>
	
		<ellipse transform="matrix(0.9689 -0.2475 0.2475 0.9689 -134.6651 400.3816)" class="st2" cx="1525.23" cy="735.83" rx="52.94" ry="69.23"/>
	
		<ellipse transform="matrix(0.1084 -0.9941 0.9941 0.1084 727.3466 2076.1582)" class="st1" cx="1521.1" cy="632.59" rx="80.08" ry="124.88"/>
	
		<linearGradient id="SVGID_1_" gradientUnits="userSpaceOnUse" x1="1513.745" y1="880.4515" x2="1513.745" y2="480.9951" gradientTransform="matrix(1 0 0 -1 0 2000)">
		<stop  offset="0.0804" style="stop-color:#4DACE7"/>
		<stop  offset="0.3979" style="stop-color:#FF3D8B"/>
		<stop  offset="0.6339" style="stop-color:#FFE922"/>
	</linearGradient>
	<polygon class="st3" points="1518.64,1220.86 1293.33,1204.87 1402.08,1478.42 1440.95,1466.46 1355.44,1253.33 1577.2,1266.73 
		1486.81,1040.06 1734.16,1071.9 1728.47,1024.31 1426.9,993.2 	"/>
	<path class="st0" d="M1017.45,1127.25c0,0-25.26-456.97,68.85-549.46c22.3-21.92,125.1,0,125.1,0l57.99,306.87
		c0,0,1.91-257.35,62.55-306.87c23.34-19.06,120.53,0,120.53,0c0.14,13,145.16,552.52,52.4,620.84c-16.98,12.51-114.02,0-114.02,0
		l-21.77-444.27c0,0,1.05,287.44-61.24,351.18c-12.87,13.16-61.45,13.81-73.62,0c-68.68-77.94-65.15-353.79-65.15-353.79
		s-4.3,313.64-67.54,375.5C1086.48,1141.94,1017.45,1127.25,1017.45,1127.25z"/>
	
		<linearGradient id="SVGID_00000009570960177326730840000009808047881167665841_" gradientUnits="userSpaceOnUse" x1="-138.4413" y1="670.0324" x2="-292.6383" y2="354.9705" gradientTransform="matrix(-0.9977 -0.0684 -0.0684 0.9977 812.5262 465.8618)">
		<stop  offset="0" style="stop-color:#4DACE7"/>
		<stop  offset="0.3433" style="stop-color:#FF3D8B"/>
		<stop  offset="0.6403" style="stop-color:#FFE922"/>
	</linearGradient>
	<polygon style="fill:url(#SVGID_00000009570960177326730840000009808047881167665841_);" points="978.82,1001.58 1119.08,1084.8 
		1137.4,873.05 1108.44,868.19 1094.67,1033.43 955.87,953.03 940.87,1128.58 791.51,1027.99 779.79,1060.56 964.38,1178.21 	"/>
	
		<ellipse transform="matrix(0.7071 -0.7071 0.7071 0.7071 61.3348 1297.4244)" class="st5" cx="1596.8" cy="574.67" rx="44.7" ry="59.57"/>
	<ellipse class="st5" cx="549.27" cy="1224.41" rx="177.82" ry="152.03"/>
	<ellipse class="st2" cx="896.76" cy="897.29" rx="154.74" ry="127.59"/>
	<path class="st0" d="M425.64,1266.49c0,0-52.92-573.04,71.56-688.7c22.91-21.29,125.1,0,125.1,0l57.99,306.87
		c0,0,1.91-257.35,62.55-306.87c23.34-19.06,120.53,0,120.53,0s101.62,433.64,9.12,527.75c-14.78,15.04-84.35,0-84.35,0
		l-8.17-351.18c0,0,6.97,293.83-61.24,351.18c-14.09,11.84-62.84,14.92-73.62,0c-52.39-72.51-65.15-353.79-65.15-353.79
		s23.42,429.66-70.26,514.74C494.13,1280.62,425.64,1266.49,425.64,1266.49z"/>
	<polygon class="st2" points="360.22,769.93 460.06,592.95 195.8,575.89 190.53,612.1 396.74,624.75 300.36,799.84 519.44,813.74 
		398.21,1002.53 439.1,1016.24 580.63,783.11 	"/>
	
		<linearGradient id="SVGID_00000145738462122450118160000007092480657575970694_" gradientUnits="userSpaceOnUse" x1="404.67" y1="1440.1" x2="404.67" y2="999.75" gradientTransform="matrix(1 0 0 -1 0 2000)">
		<stop  offset="0.0804" style="stop-color:#4DACE7"/>
		<stop  offset="0.4484" style="stop-color:#FF3D8B"/>
		<stop  offset="0.8768" style="stop-color:#FFE922"/>
	</linearGradient>
	<polygon style="fill:url(#SVGID_00000145738462122450118160000007092480657575970694_);" points="379.31,753.93 479.16,576.95 
		214.89,559.9 209.62,596.11 415.83,608.76 319.45,783.84 538.53,797.75 417.31,986.53 458.19,1000.25 599.72,767.11 	"/>
	<g>
		<g>
			<path class="st0" d="M560.62,1241.75v-22.39h39v22.39H560.62z M560.85,1375.71v-114.55h38.76v114.55H560.85z"/>
			<path class="st0" d="M640.28,1375.71v-114.55h38.76v11.49c5.07-4.23,10.34-7.53,15.81-9.91s11.21-3.57,17.24-3.57
				c5.71,0,10.42,1.16,14.15,3.47c3.72,2.31,6.54,5.48,8.44,9.51s2.85,8.62,2.85,13.77v89.77H699v-85.22c0-2.77-0.56-4.89-1.66-6.34
				c-1.11-1.45-3.17-2.18-6.18-2.18c-1.59,0-3.45,0.37-5.59,1.09c-2.14,0.73-4.32,1.75-6.54,3.07v89.58h-38.75V1375.71z"/>
			<path class="st0" d="M820.06,1376.9c-10.31,0-18.27-1.25-23.9-3.77c-5.63-2.51-9.48-6.17-11.53-11
				c-2.06-4.82-3.09-10.67-3.09-17.54v-62.23h-13.32v-21.21h13.32v-34.88h39.24v34.88h19.5v21.21h-19.5v59.06
				c0,3.3,1.15,5.68,3.45,7.13c2.3,1.46,5.19,2.18,8.68,2.18c2.06,0,3.96-0.1,5.71-0.3c1.74-0.2,3.33-0.36,4.76-0.5v25.37
				c-2.06,0.27-5.31,0.59-9.75,0.99C829.18,1376.71,824.66,1376.9,820.06,1376.9z"/>
			<path class="st0" d="M923.27,1377.7c-9.99,0-18.55-1.49-25.68-4.46s-12.6-7.33-16.41-13.08c-3.8-5.75-5.71-12.65-5.71-20.71
				v-42.01c0-8.19,1.9-15.13,5.71-20.81s9.31-10.01,16.53-12.98c7.21-2.97,15.73-4.46,25.56-4.46c10.14,0,18.59,1.46,25.33,4.36
				c6.74,2.91,11.81,7.2,15.22,12.88s5.11,12.68,5.11,21.01v22.99h-55.17v22c0,2.91,0.39,5.29,1.19,7.13
				c0.79,1.85,1.9,3.17,3.33,3.96c1.43,0.79,3.09,1.19,4.99,1.19c1.9,0,3.6-0.36,5.11-1.09c1.5-0.72,2.69-1.88,3.57-3.47
				c0.87-1.59,1.31-3.77,1.31-6.54v-12.09h35.67v11.1c0,11.63-4.04,20.38-12.13,26.26C948.72,1374.76,937.54,1377.7,923.27,1377.7z
				 M909.95,1248.49l14.98-39.83h39.48l-29.96,39.83H909.95z M913.76,1305.36h19.5v-11.49c0-3.04-0.44-5.42-1.31-7.13
				c-0.87-1.72-2.06-2.91-3.57-3.57c-1.51-0.66-3.29-0.99-5.35-0.99c-1.9,0-3.53,0.4-4.88,1.19c-1.35,0.79-2.42,2.15-3.21,4.06
				c-0.79,1.92-1.19,4.66-1.19,8.22v9.71H913.76z"/>
			<path class="st0" d="M1051.45,1415.35c-10.31,0-19.26-0.86-26.87-2.58s-13.52-4.29-17.72-7.73c-4.2-3.44-6.3-7.8-6.3-13.08
				c0-3.57,0.91-6.77,2.73-9.61s4.36-5.35,7.61-7.53s6.93-4.06,11.06-5.65c-6.03-1.45-10.7-3.63-14.03-6.54
				c-3.33-2.9-4.99-6.8-4.99-11.69c0-4.62,1.35-8.62,4.04-11.99s6.42-6.77,11.18-10.21c-4.44-3.3-7.81-7.36-10.11-12.19
				c-2.3-4.82-3.45-10.67-3.45-17.54c0-8.59,1.9-15.85,5.71-21.8s9.39-10.44,16.77-13.48c7.37-3.04,16.29-4.56,26.75-4.56
				c7.13,0,13.4,0.73,18.79,2.18c5.39,1.46,9.99,3.7,13.79,6.74c1.74-2.25,4.04-4.42,6.9-6.54c2.85-2.11,6.1-3.9,9.75-5.35
				l4.99-1.98l9.04,15.46c-1.43,0.4-3.41,1.06-5.95,1.98c-2.54,0.93-5.19,1.92-7.97,2.97c-2.78,1.06-5.27,2.11-7.49,3.17
				c1.74,2.91,3.09,6.21,4.04,9.91c0.95,3.7,1.43,7.53,1.43,11.49c0,8.19-1.78,15.26-5.35,21.21s-8.84,10.47-15.81,13.58
				c-6.98,3.11-15.7,4.66-26.16,4.66c-4.44,0-8.64-0.3-12.6-0.89s-7.61-1.35-10.94-2.28c-0.95,1.06-1.78,2.15-2.5,3.27
				c-0.71,1.12-1.07,2.35-1.07,3.67c0,1.59,0.95,2.84,2.85,3.77s5.31,1.65,10.23,2.18l36.15,3.37c11.73,1.06,20.37,4.2,25.92,9.41
				c5.55,5.22,8.32,12.06,8.32,20.51c0,7.26-1.94,13.41-5.83,18.43s-10.15,8.82-18.79,11.39
				C1076.93,1414.06,1065.56,1415.35,1051.45,1415.35z M1056.44,1391.96c8.72,0,15.42-0.59,20.09-1.78
				c4.67-1.19,7.02-3.64,7.02-7.33c0-1.85-0.64-3.34-1.9-4.46c-1.27-1.12-3.37-2.05-6.3-2.77s-7.1-1.29-12.48-1.68l-25.45-2.18
				c-1.59,0.93-2.97,1.95-4.16,3.07c-1.19,1.12-2.14,2.31-2.85,3.57c-0.71,1.25-1.07,2.61-1.07,4.06c0,3.17,2.06,5.55,6.18,7.13
				C1039.64,1391.17,1046.61,1391.96,1056.44,1391.96z M1053.83,1319.43c2.22,0,4.04-0.36,5.47-1.09c1.43-0.72,2.5-1.88,3.21-3.47
				s1.23-3.7,1.55-6.34c0.32-2.64,0.48-5.81,0.48-9.51c0-3.83-0.16-7.04-0.48-9.61c-0.32-2.58-0.83-4.69-1.55-6.34
				c-0.71-1.65-1.78-2.84-3.21-3.57c-1.43-0.72-3.25-1.09-5.47-1.09s-4.04,0.37-5.47,1.09c-1.43,0.73-2.5,1.88-3.21,3.47
				c-0.71,1.58-1.23,3.7-1.55,6.34c-0.32,2.64-0.48,5.88-0.48,9.71c0,3.7,0.16,6.84,0.48,9.41c0.32,2.58,0.83,4.69,1.55,6.34
				c0.71,1.65,1.78,2.84,3.21,3.57C1049.78,1319.07,1051.6,1319.43,1053.83,1319.43z"/>
			<path class="st0" d="M1143,1375.71v-114.55h38.76v19.03c4.44-6.6,8.88-11.66,13.32-15.16s9.83-5.25,16.17-5.25
				c1.27,0,2.38,0.03,3.33,0.1s1.82,0.23,2.62,0.5v32.1c-1.75-0.66-3.69-1.22-5.83-1.68c-2.14-0.46-4.4-0.69-6.78-0.69
				c-4.44,0-8.56,0.99-12.37,2.97c-3.81,1.98-7.29,4.69-10.46,8.13v74.51L1143,1375.71L1143,1375.71z"/>
			<path class="st0" d="M1278.55,1377.7c-6.98,0-12.84-1.39-17.6-4.16s-8.32-6.31-10.7-10.6c-2.38-4.29-3.57-8.69-3.57-13.18
				c0-7.13,1.7-13.14,5.11-18.03s7.88-8.98,13.44-12.29c5.55-3.3,11.65-6.11,18.31-8.42s13.24-4.39,19.74-6.24v-11.49
				c0-1.98-0.24-3.73-0.71-5.25c-0.48-1.52-1.27-2.71-2.38-3.57s-2.78-1.29-4.99-1.29c-2.22,0-3.92,0.4-5.11,1.19
				c-1.19,0.79-2.02,1.88-2.5,3.27s-0.79,2.94-0.95,4.66l-0.95,8.32l-36.15-1.19c0.79-13.74,5.19-23.88,13.2-30.42
				c8-6.54,20.01-9.81,36.03-9.81c13.95,0,24.38,3.21,31.27,9.61c6.9,6.41,10.34,14.7,10.34,24.87v53.51
				c0,4.76,0.12,8.92,0.36,12.49s0.55,6.67,0.95,9.31c0.39,2.64,0.75,4.89,1.07,6.74h-34.72c-0.48-3.04-1.03-6.34-1.66-9.91
				c-0.64-3.57-1.11-5.68-1.43-6.34c-1.59,4.76-4.56,8.99-8.92,12.68C1291.67,1375.84,1285.84,1377.7,1278.55,1377.7z
				 M1292.35,1355.9c1.58,0,3.05-0.26,4.4-0.79s2.58-1.25,3.69-2.18c1.11-0.92,2.06-1.85,2.85-2.77v-31.31
				c-3.17,1.58-6.11,3.2-8.8,4.85c-2.7,1.65-4.99,3.47-6.9,5.45s-3.37,4.13-4.4,6.44c-1.03,2.31-1.55,4.92-1.55,7.83
				c0,3.83,0.95,6.87,2.85,9.12C1286.4,1354.78,1289.02,1355.9,1292.35,1355.9z"/>
			<path class="st0" d="M1422.67,1376.9c-10.31,0-18.27-1.25-23.9-3.77c-5.63-2.51-9.48-6.17-11.53-11
				c-2.06-4.82-3.09-10.67-3.09-17.54v-62.23h-13.32v-21.21h13.32v-34.88h39.24v34.88h19.5v21.21h-19.5v59.06
				c0,3.3,1.15,5.68,3.45,7.13c2.3,1.46,5.19,2.18,8.68,2.18c2.06,0,3.96-0.1,5.71-0.3c1.74-0.2,3.33-0.36,4.76-0.5v25.37
				c-2.06,0.27-5.31,0.59-9.75,0.99C1431.78,1376.71,1427.26,1376.9,1422.67,1376.9z"/>
			<path class="st0" d="M1480.93,1241.75v-22.39h39v22.39H1480.93z M1481.17,1375.71v-114.55h38.76v114.55H1481.17z"/>
			<path class="st0" d="M1605.78,1377.7c-9.83,0-18.35-1.39-25.56-4.16c-7.22-2.77-12.76-6.94-16.65-12.49s-5.83-12.49-5.83-20.81
				v-43.6c0-8.32,1.94-15.26,5.83-20.81c3.88-5.55,9.43-9.71,16.65-12.48c7.21-2.77,15.73-4.16,25.56-4.16
				c9.83,0,18.35,1.39,25.56,4.16c7.21,2.77,12.8,6.94,16.77,12.48c3.96,5.55,5.95,12.49,5.95,20.81v43.6
				c0,8.32-1.98,15.26-5.95,20.81c-3.96,5.55-9.55,9.71-16.77,12.49C1624.13,1376.31,1615.61,1377.7,1605.78,1377.7z
				 M1606.02,1356.29c2.53,0,4.52-0.56,5.95-1.68c1.43-1.12,2.42-2.71,2.97-4.76c0.55-2.05,0.83-4.52,0.83-7.43v-47.96
				c0-2.9-0.28-5.38-0.83-7.43c-0.56-2.05-1.55-3.63-2.97-4.76c-1.43-1.12-3.41-1.68-5.95-1.68c-2.54,0-4.52,0.56-5.95,1.68
				c-1.43,1.12-2.46,2.71-3.09,4.76c-0.64,2.05-0.95,4.53-0.95,7.43v47.96c0,2.91,0.32,5.38,0.95,7.43s1.66,3.64,3.09,4.76
				S1603.48,1356.29,1606.02,1356.29z"/>
			<path class="st0" d="M1692.1,1375.71v-114.55h38.76v11.49c5.07-4.23,10.34-7.53,15.81-9.91s11.21-3.57,17.24-3.57
				c5.71,0,10.42,1.16,14.15,3.47c3.72,2.31,6.54,5.48,8.44,9.51c1.9,4.03,2.85,8.62,2.85,13.77v89.77h-38.53v-85.22
				c0-2.77-0.56-4.89-1.66-6.34c-1.11-1.45-3.17-2.18-6.18-2.18c-1.59,0-3.45,0.37-5.59,1.09c-2.14,0.73-4.32,1.75-6.54,3.07v89.58
				h-38.75V1375.71z"/>
		</g>
	</g>
</g>
</svg>
